<svg xmlns="http://www.w3.org/2000/svg" width="1200" height="880" viewBox="0 0 1200 880" font-family="-apple-system,&#39;Segoe UI&#39;,Helvetica,Arial,sans-serif">
  
  <defs>
    <linearGradient id="bg" x1="0" y1="0" x2="0" y2="1">
      <stop offset="0" stop-color="#0a0e14"></stop><stop offset="1" stop-color="#10141d"></stop>
    </linearGradient>
  </defs>
  <rect width="1200" height="880" fill="url(#bg)"></rect>

  <text x="600" y="52" text-anchor="middle" fill="#ffffff" font-size="28" font-weight="700" letter-spacing="0.5">EOS-Observability</text>
  <text x="600" y="76" text-anchor="middle" fill="#6b7485" font-size="13">Multi-harness agent observability</text>

  
  <g stroke="#4da3ff" stroke-width="1.5" stroke-opacity="0.5">
    <path d="M138,170 L190,170"></path><path d="M138,265 L190,265"></path><path d="M138,360 L190,360"></path><path d="M138,455 L190,455"></path><path d="M138,550 L190,550"></path>
  </g>
  <path d="M138,700 L190,700" stroke="#2dd4bf" stroke-width="1.5" stroke-opacity="0.5"></path>

  
  <g stroke="#4ade80">
    <path class="flow" d="M336,170 C440,170 450,430 540,428"></path>
    <path class="flow" style="animation-delay:-0.3s" d="M336,265 C440,265 450,430 540,429"></path>
    <path class="flow" style="animation-delay:-0.6s" d="M336,360 C440,360 450,430 540,430"></path>
    <path class="flow" style="animation-delay:-0.9s" d="M336,455 C440,455 450,430 540,431"></path>
    <path class="flow" style="animation-delay:-1.2s" d="M336,550 C440,550 450,432 540,432"></path>
    <path class="flow" style="animation-delay:-0.5s" d="M336,700 C450,700 450,436 540,434"></path>
  </g>
  <path class="flow" style="animation-duration:1.8s" d="M620,487 L620,553" stroke="#f5a623" stroke-dasharray="1 8"></path>
  <path class="flow" style="animation-duration:1.2s" d="M697,430 L828,430" stroke="#4da3ff"></path>
  <text x="712" y="414" fill="#7db8ff" font-size="11" font-weight="600" letter-spacing="1">WebSocket</text>

  
  <text x="60" y="122" fill="#6b7485" font-size="11" font-weight="600" letter-spacing="2">CLAUDE CODE</text>
  <g>
    <g style="filter:drop-shadow(0 0 9px rgba(77,163,255,0.55))">
      <circle cx="110" cy="170" r="28" fill="#101c2e" stroke="#4da3ff" stroke-width="1.5"></circle>
      <circle cx="110" cy="265" r="28" fill="#101c2e" stroke="#4da3ff" stroke-width="1.5"></circle>
      <circle cx="110" cy="360" r="28" fill="#101c2e" stroke="#4da3ff" stroke-width="1.5"></circle>
      <circle cx="110" cy="455" r="28" fill="#101c2e" stroke="#4da3ff" stroke-width="1.5"></circle>
      <circle cx="110" cy="550" r="28" fill="#101c2e" stroke="#4da3ff" stroke-width="1.5"></circle>
    </g>
    <g fill="#ffffff" font-size="16" font-weight="700" text-anchor="middle">
      <text x="110" y="176">EL</text><text x="110" y="271">RS</text><text x="110" y="366">AR</text><text x="110" y="461">IM</text><text x="110" y="556">RV</text>
    </g>
    <g fill="#6b7485" font-size="10" text-anchor="middle">
      <text x="110" y="213">Engineering Lead</text><text x="110" y="308">Research</text><text x="110" y="403">Architecture</text><text x="110" y="498">Implementation</text><text x="110" y="593">Review</text>
    </g>
    <g style="filter:drop-shadow(0 0 7px rgba(167,139,250,0.4))">
      <rect x="190" y="154" width="146" height="32" rx="16" fill="rgba(167,139,250,0.16)" stroke="#a78bfa"></rect>
      <rect x="190" y="249" width="146" height="32" rx="16" fill="rgba(167,139,250,0.16)" stroke="#a78bfa"></rect>
      <rect x="190" y="344" width="146" height="32" rx="16" fill="rgba(167,139,250,0.16)" stroke="#a78bfa"></rect>
      <rect x="190" y="439" width="146" height="32" rx="16" fill="rgba(167,139,250,0.16)" stroke="#a78bfa"></rect>
      <rect x="190" y="534" width="146" height="32" rx="16" fill="rgba(167,139,250,0.16)" stroke="#a78bfa"></rect>
    </g>
    <g fill="#c9b8ff" font-size="12" font-weight="600" text-anchor="middle">
      <text x="263" y="174">Hooks (Python)</text><text x="263" y="269">Hooks (Python)</text><text x="263" y="364">Hooks (Python)</text><text x="263" y="459">Hooks (Python)</text><text x="263" y="554">Hooks (Python)</text>
    </g>
  </g>

  
  <text x="60" y="656" fill="#6b7485" font-size="11" font-weight="600" letter-spacing="2">PI.DEV</text>
  <circle cx="110" cy="700" r="28" fill="#0d2320" stroke="#2dd4bf" stroke-width="1.5" style="filter:drop-shadow(0 0 9px rgba(45,212,191,0.55))"></circle>
  <text x="110" y="706" text-anchor="middle" fill="#ffffff" font-size="16" font-weight="700">PI</text>
  <text x="110" y="743" text-anchor="middle" fill="#6b7485" font-size="10">pi.dev agent</text>
  <rect x="190" y="684" width="146" height="32" rx="16" fill="none" stroke="#a78bfa" stroke-width="1.5" stroke-dasharray="5 4" style="filter:drop-shadow(0 0 7px rgba(167,139,250,0.35))"></rect>
  <text x="263" y="704" text-anchor="middle" fill="#c9b8ff" font-size="12" font-weight="600">Extension (TS)</text>

  
  <g style="filter:drop-shadow(0 0 12px rgba(255,107,74,0.55))">
    <rect x="545" y="375" width="150" height="110" rx="14" fill="#1c1210" stroke="#ff6b4a" stroke-width="1.5"></rect>
  </g>
  <circle cx="559" cy="389" r="4" fill="#4ade80" style="filter:drop-shadow(0 0 4px rgba(74,222,128,0.9))"></circle>
  <text x="620" y="432" text-anchor="middle" fill="#ffffff" font-size="26" font-weight="800" letter-spacing="1">BUN</text>
  <text x="620" y="456" text-anchor="middle" fill="#ff9a80" font-size="12">Server</text>

  
  <g style="filter:drop-shadow(0 0 10px rgba(245,166,35,0.35))">
    <path d="M568,569 L568,617 A52,12 0 0 0 672,617 L672,569" fill="#1c1610" stroke="#f5a623" stroke-width="1.5"></path>
    <ellipse cx="620" cy="569" rx="52" ry="12" fill="#241c10" stroke="#f5a623" stroke-width="1.5"></ellipse>
    <path d="M568,577 A52,12 0 0 0 672,577" fill="none" stroke="#2dd4bf" stroke-width="2.5"></path>
  </g>
  <text x="620" y="608" text-anchor="middle" fill="#f5a623" font-size="13" font-weight="700">SQLite</text>

  
  <g style="filter:drop-shadow(0 6px 18px rgba(0,0,0,0.5)) drop-shadow(0 0 14px rgba(77,163,255,0.3))">
    <rect x="830" y="308" width="320" height="164" rx="10" fill="#f4f6f9" stroke="#2a3242"></rect>
  </g>
  <path d="M830,318 A10,10 0 0 1 840,308 L1140,308 A10,10 0 0 1 1150,318 L1150,344 L830,344 Z" fill="#1b2230"></path>
  <circle cx="848" cy="326" r="5.5" fill="#ff5f57"></circle><circle cx="865" cy="326" r="5.5" fill="#febc2e"></circle><circle cx="882" cy="326" r="5.5" fill="#28c840"></circle>
  <rect x="896" y="316" width="242" height="20" rx="6" fill="#0e1320"></rect>
  <text x="908" y="330" fill="#8a93a6" font-size="11" font-family="ui-monospace,&#39;SF Mono&#39;,Menlo,monospace">localhost:5273</text>
  <text x="990" y="402" text-anchor="middle" fill="#0b0f16" font-size="22" font-weight="800">Live Dashboard</text>
  <circle cx="925" cy="428" r="4" fill="#16a34a" style="filter:drop-shadow(0 0 4px rgba(22,163,74,0.8))"></circle>
  <text x="936" y="433" fill="#16a34a" font-size="13" font-weight="600">Real-time Updates</text>
</svg>